<svg width="512" height="512" viewBox="0 0 512 512" fill="none" xmlns="http://www.w3.org/2000/svg">
<g clip-path="url(#clip0_997_76)">
<path d="M293.995 218.006H187.929L134.896 313.465L124.29 324.072C106.683 341.679 106.683 370.103 124.29 387.711C141.896 405.317 170.322 405.318 187.93 387.711L198.536 377.105L293.995 324.072V218.006ZM116.489 285.78C121.378 284.848 125.469 281.565 127.447 276.996C138.551 251.35 163.234 213.533 193.49 175.84C196.556 172.007 197.561 166.922 196.162 162.209C193.299 152.508 183.981 151.762 182.065 150.743C179.113 149.759 108.834 127.396 39.4346 196.795C-12.9974 249.227 16.9266 280.353 18.2216 281.648C24.0846 287.511 33.5726 287.511 39.4346 281.648C56.9816 264.102 85.5276 264.102 103.075 281.648C106.586 285.158 111.61 286.702 116.489 285.78ZM349.793 315.839C345.08 314.441 339.994 315.445 336.162 318.511C297.154 349.813 260.341 373.864 235.13 384.491C230.531 386.438 227.196 390.54 226.232 395.439C225.289 400.338 226.823 405.393 230.355 408.925C247.901 426.471 247.901 455.018 230.355 472.565C224.492 478.428 224.492 487.917 230.355 493.779C231.65 495.073 262.776 524.997 315.208 472.565C384.607 403.166 362.244 332.887 361.26 329.956C360.287 328.129 359.472 318.681 349.793 315.839V315.839ZM510.369 14.3605C509.309 7.78448 504.218 2.69348 497.64 1.63148C493.823 1.20648 437.183 -6.21752 366.331 14.5705L410.19 100.855L497.429 145.668C518.218 74.8175 510.793 18.1775 510.369 14.3605V14.3605ZM315.208 111.94C291.873 135.275 291.873 173.458 315.208 196.793C338.754 220.339 376.726 220.128 400.061 196.793C423.607 173.247 423.607 135.486 400.061 111.94C376.726 88.6055 338.755 88.3945 315.208 111.94Z" fill="url(#paint0_linear_997_76)"/>
<path d="M366.332 14.5713C319.875 27.9373 267.479 53.6043 219.749 101.334C204.051 117.032 186.867 136.336 170.109 156.911C138.289 196.792 111.985 237.098 100.106 265.099C97.5603 270.615 98.6212 277.191 103.076 281.646L134.896 313.466L209.142 239.219C226.749 221.612 255.174 221.612 272.782 239.219C290.6 257.037 290.6 285.04 272.782 302.859L198.536 377.105L230.356 408.925C234.598 413.167 241.174 414.652 246.689 412.107C274.478 400.44 313.936 374.983 355.089 341.891C375.664 325.133 394.97 307.95 410.667 292.253C458.397 244.523 484.064 192.127 497.428 145.669L366.332 14.5713ZM400.061 196.793C376.726 220.128 338.755 220.339 315.208 196.793C291.873 173.458 291.873 135.275 315.208 111.94C338.754 88.3943 376.726 88.6053 400.061 111.94C423.607 135.486 423.607 173.247 400.061 196.793ZM103.272 408.937C97.4093 403.075 87.9222 403.075 82.0592 408.937L4.39725 486.39C-1.46575 492.253 -1.46575 501.741 4.39725 507.603C10.2603 513.465 19.7483 513.466 25.6103 507.603L103.272 430.15C109.135 424.287 109.135 414.799 103.272 408.937V408.937ZM124.485 451.363L103.272 472.576C97.4093 478.439 97.4093 487.927 103.272 493.789C109.135 499.652 118.623 499.652 124.485 493.789L145.698 472.576C151.561 466.714 151.561 457.225 145.698 451.363C139.835 445.501 130.348 445.501 124.485 451.363ZM39.6323 408.937L60.8453 387.724C66.7083 381.861 66.7083 372.373 60.8453 366.511C54.9823 360.648 45.4943 360.648 39.6323 366.511L18.4193 387.724C12.5563 393.586 12.5563 403.075 18.4193 408.937C24.2823 414.799 33.7703 414.799 39.6323 408.937Z" fill="url(#paint1_linear_997_76)"/>
</g>
<defs>
<linearGradient id="paint0_linear_997_76" x1="124.307" y1="387.639" x2="506.035" y2="5.91179" gradientUnits="userSpaceOnUse">
<stop stop-color="#ADDCFF"/>
<stop offset="0.5028" stop-color="#EAF6FF"/>
<stop offset="1" stop-color="#EAF6FF"/>
</linearGradient>
<linearGradient id="paint1_linear_997_76" x1="4.43541" y1="507.512" x2="431.854" y2="80.0928" gradientUnits="userSpaceOnUse">
<stop stop-color="#5558FF"/>
<stop offset="1" stop-color="#00C0FF"/>
</linearGradient>
<clipPath id="clip0_997_76">
<rect width="512" height="512" fill="white"/>
</clipPath>
</defs>
</svg>
